# xmcd
#
# Track frame offsets:
#	150
#	18370
#	38476
#	58002
#	70671
#	84893
#	100902
#	116229
#	133333
#	154490
#	174087
#
# Disc length: 2576 seconds
#
# Revision: 1
# Processed by: cddbd v1.5.2PL0 Copyright (c) Steve Scherf et al.
# Submitted via: audiograbber 1.83.01
#
DISCID=890a0e0b
DTITLE=Skyla Spencer - You Said You'd Call Me
DYEAR=2004
DGENRE=Country
TTITLE0=You Said You'd Call Me
TTITLE1=Chuga Choo Choo
TTITLE2=If I Were Rain
TTITLE3=He's A Bad Boy
TTITLE4=Wild Dreams
TTITLE5=Why Do You Do This To Me
TTITLE6=Oh What A Day
TTITLE7=You Made Me Believe
TTITLE8=In Paradise
TTITLE9=One More Chance
TTITLE10=Reach For The Stars
EXTD=Words and Music by Skyla Spencer\n\nProduced by Ted Hewitt, Bob McGilpin a
EXTD=nd James Williams
EXTT0=Produced by Ted Hewitt
EXTT1=Produced by James Williams
EXTT2=Produced by Bob McGilpin
EXTT3=Produced by Ted Hewitt
EXTT4=Produced by James Williams
EXTT5=Produced by Ted Hewitt
EXTT6=Produced by James Williams
EXTT7=Produced by James Williams
EXTT8=Produced by James Williams
EXTT9=Produced by Bob McGilpin
EXTT10=Produced by Bob McGilpin
PLAYORDER=
